<?xml version="1.0" encoding="UTF-8" standalone="no"?>
<!-- Created with Inkscape (http://www.inkscape.org/) -->

<svg
   xmlns:dc="http://purl.org/dc/elements/1.1/"
   xmlns:cc="http://creativecommons.org/ns#"
   xmlns:rdf="http://www.w3.org/1999/02/22-rdf-syntax-ns#"
   xmlns:svg="http://www.w3.org/2000/svg"
   xmlns="http://www.w3.org/2000/svg"
   xmlns:sodipodi="http://sodipodi.sourceforge.net/DTD/sodipodi-0.dtd"
   xmlns:inkscape="http://www.inkscape.org/namespaces/inkscape"
   id="svg2"
   version="1.1"
   inkscape:version="0.91 r13725"
   xml:space="preserve"
   width="874.79999"
   height="324.42499"
   viewBox="0 0 874.79999 324.42499"
   sodipodi:docname="imls_logo_2c.svg"><metadata
     id="metadata8"><rdf:RDF><cc:Work
         rdf:about=""><dc:format>image/svg+xml</dc:format><dc:type
           rdf:resource="http://purl.org/dc/dcmitype/StillImage" /><dc:title></dc:title></cc:Work></rdf:RDF></metadata><defs
     id="defs6" /><sodipodi:namedview
     pagecolor="#ffffff"
     bordercolor="#666666"
     borderopacity="1"
     objecttolerance="10"
     gridtolerance="10"
     guidetolerance="10"
     inkscape:pageopacity="0"
     inkscape:pageshadow="2"
     inkscape:window-width="1920"
     inkscape:window-height="1056"
     id="namedview4"
     showgrid="false"
     inkscape:zoom="0.59329719"
     inkscape:cx="704.20209"
     inkscape:cy="58.051066"
     inkscape:window-x="0"
     inkscape:window-y="24"
     inkscape:window-maximized="1"
     inkscape:current-layer="g10" /><g
     id="g10"
     inkscape:groupmode="layer"
     inkscape:label="ink_ext_XXXXXX"
     transform="matrix(1.25,0,0,-1.25,0,324.425)"><g
       id="g12"
       transform="scale(0.1,0.1)"><path
         d="m 927.105,1299.94 c 0,45.29 36.708,82 82.015,82 45.27,0 81.95,-36.71 81.95,-82 0,-45.27 -36.68,-81.94 -81.95,-81.94 -45.307,0 -82.015,36.67 -82.015,81.94"
         style="fill:#396c4f;fill-opacity:1;fill-rule:nonzero;stroke:none"
         id="path14"
         inkscape:connector-curvature="0" /><path
         d="m 737.59,1299.94 c 0,40.74 33.015,73.77 73.746,73.77 40.766,0 73.82,-33.03 73.82,-73.77 0,-40.73 -33.054,-73.73 -73.82,-73.73 -40.731,0 -73.746,33 -73.746,73.73"
         style="fill:#396c4f;fill-opacity:1;fill-rule:nonzero;stroke:none"
         id="path16"
         inkscape:connector-curvature="0" /><path
         d="m 554.648,1299.94 c 0,36.66 29.75,66.4 66.45,66.4 36.668,0 66.347,-29.74 66.347,-66.4 0,-36.67 -29.679,-66.38 -66.347,-66.38 -36.7,0 -66.45,29.71 -66.45,66.38"
         style="fill:#396c4f;fill-opacity:1;fill-rule:nonzero;stroke:none"
         id="path18"
         inkscape:connector-curvature="0" /><path
         d="m 372.875,1299.94 c 0,33.01 26.809,59.77 59.832,59.77 32.996,0 59.715,-26.76 59.715,-59.77 0,-33.03 -26.719,-59.74 -59.715,-59.74 -33.023,0 -59.832,26.71 -59.832,59.74"
         style="fill:#396c4f;fill-opacity:1;fill-rule:nonzero;stroke:none"
         id="path20"
         inkscape:connector-curvature="0" /><path
         d="m 188.629,1299.94 c 0,29.73 24.117,53.82 53.816,53.82 29.707,0 53.778,-24.09 53.778,-53.82 0,-29.67 -24.071,-53.77 -53.778,-53.77 -29.699,0 -53.816,24.1 -53.816,53.77"
         style="fill:#396c4f;fill-opacity:1;fill-rule:nonzero;stroke:none"
         id="path22"
         inkscape:connector-curvature="0" /><path
         d="m 0,1299.94 c 0,26.75 21.7227,48.39 48.4219,48.39 26.7148,0 48.4375,-21.64 48.4375,-48.39 0,-26.68 -21.7227,-48.36 -48.4375,-48.36 C 21.7227,1251.58 0,1273.26 0,1299.94"
         style="fill:#396c4f;fill-opacity:1;fill-rule:nonzero;stroke:none"
         id="path24"
         inkscape:connector-curvature="0" /><path
         d="m 1274.93,1668.31 c 45.28,0 82.04,-36.74 82.04,-81.94 0,-45.34 -36.76,-82 -82.04,-82 -45.25,0 -81.93,36.66 -81.93,82 0,45.2 36.68,81.94 81.93,81.94"
         style="fill:#396c4f;fill-opacity:1;fill-rule:nonzero;stroke:none"
         id="path26"
         inkscape:connector-curvature="0" /><path
         d="m 1274.93,1857.87 c 40.74,0 73.79,-33.05 73.79,-73.8 0,-40.75 -33.05,-73.77 -73.79,-73.77 -40.73,0 -73.75,33.02 -73.75,73.77 0,40.75 33.02,73.8 73.75,73.8"
         style="fill:#396c4f;fill-opacity:1;fill-rule:nonzero;stroke:none"
         id="path28"
         inkscape:connector-curvature="0" /><path
         d="m 1274.93,2040.73 c 36.7,0 66.44,-29.67 66.44,-66.41 0,-36.66 -29.74,-66.41 -66.44,-66.41 -36.67,0 -66.36,29.75 -66.36,66.41 0,36.74 29.69,66.41 66.36,66.41"
         style="fill:#396c4f;fill-opacity:1;fill-rule:nonzero;stroke:none"
         id="path30"
         inkscape:connector-curvature="0" /><path
         d="m 1274.93,2222.53 c 33.02,0 59.8,-26.76 59.8,-59.78 0,-33.09 -26.78,-59.77 -59.8,-59.77 -33.01,0 -59.75,26.68 -59.75,59.77 0,33.02 26.74,59.78 59.75,59.78"
         style="fill:#396c4f;fill-opacity:1;fill-rule:nonzero;stroke:none"
         id="path32"
         inkscape:connector-curvature="0" /><path
         d="m 1274.93,2406.73 c 29.74,0 53.82,-24.09 53.82,-53.76 0,-29.7 -24.08,-53.76 -53.82,-53.76 -29.69,0 -53.76,24.06 -53.76,53.76 0,29.67 24.07,53.76 53.76,53.76"
         style="fill:#396c4f;fill-opacity:1;fill-rule:nonzero;stroke:none"
         id="path34"
         inkscape:connector-curvature="0" /><path
         d="m 1274.93,2595.42 c 26.77,0 48.46,-21.72 48.46,-48.44 0,-26.75 -21.69,-48.33 -48.46,-48.33 -26.73,0 -48.42,21.58 -48.42,48.33 0,26.72 21.69,48.44 48.42,48.44"
         style="fill:#396c4f;fill-opacity:1;fill-rule:nonzero;stroke:none"
         id="path36"
         inkscape:connector-curvature="0" /><path
         d="m 796.66,1522.44 c 15.403,33.39 54.82,48.04 88.117,32.63 33.274,-15.31 47.875,-54.75 32.528,-88.09 -15.348,-33.36 -54.731,-47.9 -88.035,-32.6 -33.356,15.35 -47.891,54.75 -32.61,88.06"
         style="fill:#396c4f;fill-opacity:1;fill-rule:nonzero;stroke:none"
         id="path38"
         inkscape:connector-curvature="0" /><path
         d="m 631.559,1598.55 c 13.796,29.89 49.382,43.15 79.343,29.23 30.012,-13.78 43.078,-49.28 29.266,-79.24 -13.758,-30.03 -49.254,-43.19 -79.18,-29.31 -30.05,13.82 -43.211,49.29 -29.429,79.32"
         style="fill:#396c4f;fill-opacity:1;fill-rule:nonzero;stroke:none"
         id="path40"
         inkscape:connector-curvature="0" /><path
         d="m 464.191,1675.61 c 12.411,26.89 44.414,38.7 71.368,26.3 26.945,-12.39 38.886,-44.31 26.386,-71.29 -12.48,-27.03 -44.394,-38.89 -71.363,-26.39 -26.926,12.47 -38.84,44.32 -26.391,71.38"
         style="fill:#396c4f;fill-opacity:1;fill-rule:nonzero;stroke:none"
         id="path42"
         inkscape:connector-curvature="0" /><path
         d="m 292.852,1754.4 c 11.211,24.28 39.953,34.99 64.281,23.76 24.176,-11.15 34.855,-39.94 23.687,-64.21 -11.172,-24.36 -39.949,-34.92 -64.222,-23.7 -24.254,11.12 -34.938,39.95 -23.746,64.15"
         style="fill:#396c4f;fill-opacity:1;fill-rule:nonzero;stroke:none"
         id="path44"
         inkscape:connector-curvature="0" /><path
         d="m 1079.24,1800.69 c 34.81,11.81 72.55,-6.78 84.25,-41.58 11.75,-34.67 -6.85,-72.39 -41.6,-84.16 -34.72,-11.82 -72.44,6.77 -84.16,41.54 -11.88,34.7 6.82,72.39 41.51,84.2"
         style="fill:#396c4f;fill-opacity:1;fill-rule:nonzero;stroke:none"
         id="path46"
         inkscape:connector-curvature="0" /><path
         d="m 1020.91,1972.87 c 31.2,10.56 65.3,-6.17 75.83,-37.51 10.64,-31.23 -6.19,-65.17 -37.45,-75.74 -31.22,-10.67 -65.227,6.09 -75.677,37.28 -10.707,31.35 6.028,65.32 37.297,75.97"
         style="fill:#396c4f;fill-opacity:1;fill-rule:nonzero;stroke:none"
         id="path48"
         inkscape:connector-curvature="0" /><path
         d="m 961.715,2147.3 c 28.121,9.55 58.685,-5.54 68.185,-33.67 9.56,-28 -5.42,-58.65 -33.576,-68.16 -28.199,-9.55 -58.703,5.47 -68.219,33.71 -9.507,28.03 5.438,58.65 33.61,68.12"
         style="fill:#396c4f;fill-opacity:1;fill-rule:nonzero;stroke:none"
         id="path50"
         inkscape:connector-curvature="0" /><path
         d="m 901.098,2325.96 c 25.332,8.54 52.945,-5 61.492,-30.32 8.488,-25.29 -5.047,-52.78 -30.36,-61.41 -25.332,-8.68 -52.816,4.95 -61.335,30.4 -8.59,25.18 4.984,52.77 30.203,61.33"
         style="fill:#396c4f;fill-opacity:1;fill-rule:nonzero;stroke:none"
         id="path52"
         inkscape:connector-curvature="0" /><path
         d="m 1016.23,1566.59 c -32.062,-32.04 -32.136,-83.94 -0.06,-115.95 31.95,-32.07 83.92,-32.03 115.92,-0.07 32.06,32.04 32.06,83.94 0.05,115.94 -31.99,32.04 -83.86,32.11 -115.91,0.08"
         style="fill:#396c4f;fill-opacity:1;fill-rule:nonzero;stroke:none"
         id="path54"
         inkscape:connector-curvature="0" /><path
         d="m 882.301,1700.71 c -28.906,-28.75 -28.906,-75.51 -0.059,-104.35 28.754,-28.8 75.477,-28.8 104.258,-0.1 28.89,28.82 28.89,75.58 0.055,104.41 -28.782,28.84 -75.485,28.84 -104.254,0.04"
         style="fill:#396c4f;fill-opacity:1;fill-rule:nonzero;stroke:none"
         id="path56"
         inkscape:connector-curvature="0" /><path
         d="m 753.039,1830.1 c -25.969,-25.88 -26.027,-67.94 -0.129,-93.93 25.969,-25.94 67.953,-25.94 93.977,-0.03 25.949,25.99 25.949,67.97 0,93.89 -25.84,25.99 -67.957,26.06 -93.848,0.07"
         style="fill:#396c4f;fill-opacity:1;fill-rule:nonzero;stroke:none"
         id="path58"
         inkscape:connector-curvature="0" /><path
         d="m 624.547,1958.76 c -23.332,-23.43 -23.391,-61.24 -0.059,-84.56 23.325,-23.36 61.196,-23.44 84.575,-0.04 23.332,23.34 23.382,61.17 0,84.49 -23.325,23.4 -61.141,23.47 -84.516,0.11"
         style="fill:#396c4f;fill-opacity:1;fill-rule:nonzero;stroke:none"
         id="path60"
         inkscape:connector-curvature="0" /><path
         d="m 494.313,2089.14 c -21.04,-21.08 -20.993,-55.12 -0.055,-76.18 20.996,-20.92 55.039,-20.92 76.09,0 20.996,21.06 20.996,55.03 0.054,76.02 -20.992,21.07 -55.039,21.11 -76.089,0.16"
         style="fill:#396c4f;fill-opacity:1;fill-rule:nonzero;stroke:none"
         id="path62"
         inkscape:connector-curvature="0" /><path
         d="m 360.992,2222.6 c -18.91,-18.95 -18.91,-49.64 0,-68.59 18.895,-18.88 49.512,-18.81 68.434,0.07 18.894,18.81 18.953,49.46 0.047,68.42 -18.895,18.95 -49.586,18.95 -68.481,0.1"
         style="fill:#396c4f;fill-opacity:1;fill-rule:nonzero;stroke:none"
         id="path64"
         inkscape:connector-curvature="0" /><path
         d="m 1275.89,927.121 c -45.28,0 -82,36.699 -82,82.009 0,45.26 36.72,81.93 82,81.93 45.29,0 81.96,-36.67 81.96,-81.93 0,-45.31 -36.67,-82.009 -81.96,-82.009"
         style="fill:#396c4f;fill-opacity:1;fill-rule:nonzero;stroke:none"
         id="path66"
         inkscape:connector-curvature="0" /><path
         d="m 1275.89,737.59 c -40.73,0 -73.75,33.019 -73.75,73.762 0,40.75 33.02,73.777 73.75,73.777 40.73,0 73.76,-33.027 73.76,-73.777 0,-40.743 -33.03,-73.762 -73.76,-73.762"
         style="fill:#396c4f;fill-opacity:1;fill-rule:nonzero;stroke:none"
         id="path68"
         inkscape:connector-curvature="0" /><path
         d="m 1275.89,554.648 c -36.66,0 -66.38,29.711 -66.38,66.461 0,36.653 29.72,66.332 66.38,66.332 36.67,0 66.4,-29.679 66.4,-66.332 0,-36.75 -29.73,-66.461 -66.4,-66.461"
         style="fill:#396c4f;fill-opacity:1;fill-rule:nonzero;stroke:none"
         id="path70"
         inkscape:connector-curvature="0" /><path
         d="m 1275.89,372.898 c -33.01,0 -59.75,26.75 -59.75,59.762 0,33.031 26.74,59.789 59.75,59.789 33.03,0 59.76,-26.758 59.76,-59.789 0,-33.012 -26.73,-59.762 -59.76,-59.762"
         style="fill:#396c4f;fill-opacity:1;fill-rule:nonzero;stroke:none"
         id="path72"
         inkscape:connector-curvature="0" /><path
         d="m 1275.89,188.609 c -29.72,0 -53.82,24.129 -53.82,53.813 0,29.738 24.1,53.797 53.82,53.797 29.68,0 53.78,-24.059 53.78,-53.797 0,-29.684 -24.1,-53.813 -53.78,-53.813"
         style="fill:#396c4f;fill-opacity:1;fill-rule:nonzero;stroke:none"
         id="path74"
         inkscape:connector-curvature="0" /><path
         d="m 1275.89,0 c -26.73,0 -48.38,21.6914 -48.38,48.4414 0,26.6797 21.65,48.4102 48.38,48.4102 26.69,0 48.39,-21.7305 48.39,-48.4102 C 1324.28,21.6914 1302.58,0 1275.89,0"
         style="fill:#396c4f;fill-opacity:1;fill-rule:nonzero;stroke:none"
         id="path76"
         inkscape:connector-curvature="0" /><path
         d="m 1076.69,812.23 c -33.37,15.372 -48.01,54.829 -32.58,88.09 15.3,33.282 54.72,47.899 88.12,32.559 33.3,-15.359 47.83,-54.75 32.52,-88.07 -15.31,-33.34 -54.73,-47.879 -88.06,-32.579"
         style="fill:#396c4f;fill-opacity:1;fill-rule:nonzero;stroke:none"
         id="path78"
         inkscape:connector-curvature="0" /><path
         d="m 1000.61,647.129 c -29.911,13.769 -43.118,49.383 -29.258,79.34 13.82,30 49.298,43.09 79.268,29.269 30.03,-13.777 43.18,-49.289 29.31,-79.168 -13.81,-30.05 -49.29,-43.23 -79.32,-29.441"
         style="fill:#396c4f;fill-opacity:1;fill-rule:nonzero;stroke:none"
         id="path80"
         inkscape:connector-curvature="0" /><path
         d="m 923.57,479.77 c -26.933,12.39 -38.707,44.39 -26.328,71.359 12.387,26.93 44.336,38.851 71.305,26.383 27.051,-12.473 38.893,-44.403 26.391,-71.352 -12.454,-26.949 -44.336,-38.859 -71.368,-26.39"
         style="fill:#396c4f;fill-opacity:1;fill-rule:nonzero;stroke:none"
         id="path82"
         inkscape:connector-curvature="0" /><path
         d="m 844.793,308.43 c -24.293,11.179 -35.008,39.929 -23.816,64.242 11.183,24.219 39.961,34.887 64.253,23.687 24.344,-11.148 34.918,-39.937 23.672,-64.211 C 897.789,307.91 868.957,297.23 844.793,308.43"
         style="fill:#396c4f;fill-opacity:1;fill-rule:nonzero;stroke:none"
         id="path84"
         inkscape:connector-curvature="0" /><path
         d="m 795.332,1090.15 c -11.812,34.8 6.801,72.56 41.613,84.22 34.672,11.77 72.375,-6.86 84.133,-41.58 11.813,-34.75 -6.762,-72.42 -41.512,-84.17 -34.703,-11.87 -72.402,6.83 -84.234,41.53"
         style="fill:#396c4f;fill-opacity:1;fill-rule:nonzero;stroke:none"
         id="path86"
         inkscape:connector-curvature="0" /><path
         d="m 623.195,1031.8 c -10.574,31.18 6.157,65.3 37.5,75.84 31.219,10.65 65.164,-6.19 75.723,-37.43 10.676,-31.28 -6.066,-65.24 -37.285,-75.69 -31.344,-10.7 -65.293,5.99 -75.938,37.28"
         style="fill:#396c4f;fill-opacity:1;fill-rule:nonzero;stroke:none"
         id="path88"
         inkscape:connector-curvature="0" /><path
         d="m 448.742,972.602 c -9.519,28.138 5.551,58.668 33.672,68.188 28.008,9.55 58.645,-5.43 68.191,-33.57 9.536,-28.2 -5.503,-58.72 -33.75,-68.208 -28.007,-9.524 -58.648,5.457 -68.113,33.59"
         style="fill:#396c4f;fill-opacity:1;fill-rule:nonzero;stroke:none"
         id="path90"
         inkscape:connector-curvature="0" /><path
         d="m 270.09,912 c -8.524,25.32 4.996,52.949 30.324,61.48 25.281,8.532 52.762,-5.039 61.399,-30.332 8.671,-25.367 -4.958,-52.847 -30.375,-61.367 -25.223,-8.582 -52.805,5.02 -61.348,30.219"
         style="fill:#396c4f;fill-opacity:1;fill-rule:nonzero;stroke:none"
         id="path92"
         inkscape:connector-curvature="0" /><path
         d="m 1020.14,1041.13 c 32.04,-32.08 83.93,-32.16 115.96,-0.09 32.06,31.93 32.03,83.91 0.06,115.95 -32.02,32.04 -83.92,32.04 -115.92,0.03 -32.064,-32 -32.135,-83.82 -0.1,-115.89"
         style="fill:#396c4f;fill-opacity:1;fill-rule:nonzero;stroke:none"
         id="path94"
         inkscape:connector-curvature="0" /><path
         d="m 886.031,907.211 c 28.778,-28.941 75.516,-28.941 104.352,-0.082 28.777,28.762 28.787,75.449 0.086,104.251 -28.824,28.9 -75.571,28.9 -104.399,0.07 -28.847,-28.79 -28.847,-75.509 -0.039,-104.239"
         style="fill:#396c4f;fill-opacity:1;fill-rule:nonzero;stroke:none"
         id="path96"
         inkscape:connector-curvature="0" /><path
         d="m 756.641,777.898 c 25.879,-25.937 67.925,-26.019 93.906,-0.058 25.976,25.93 25.976,67.93 0.039,93.949 -25.984,25.941 -67.969,25.941 -93.887,0 -25.953,-25.891 -26.039,-67.937 -0.058,-93.891"
         style="fill:#396c4f;fill-opacity:1;fill-rule:nonzero;stroke:none"
         id="path98"
         inkscape:connector-curvature="0" /><path
         d="m 627.984,649.461 c 23.418,-23.332 61.211,-23.391 84.539,-0.07 23.407,23.32 23.418,61.148 0.055,84.55 -23.324,23.34 -61.152,23.399 -84.48,0 -23.379,-23.32 -23.473,-61.121 -0.114,-84.48"
         style="fill:#396c4f;fill-opacity:1;fill-rule:nonzero;stroke:none"
         id="path100"
         inkscape:connector-curvature="0" /><path
         d="m 497.617,519.191 c 21.039,-21.062 55.102,-20.992 76.137,-0.07 20.973,21 20.973,55.039 0.031,76.109 -21.066,20.989 -55.031,20.989 -76.066,0.071 -21.047,-20.992 -21.078,-55.039 -0.102,-76.11"
         style="fill:#396c4f;fill-opacity:1;fill-rule:nonzero;stroke:none"
         id="path102"
         inkscape:connector-curvature="0" /><path
         d="m 364.16,385.871 c 18.922,-18.883 49.61,-18.883 68.574,0 18.868,18.879 18.813,49.551 -0.054,68.449 -18.84,18.891 -49.473,18.95 -68.446,0.078 -18.957,-18.957 -18.957,-49.648 -0.074,-68.527"
         style="fill:#396c4f;fill-opacity:1;fill-rule:nonzero;stroke:none"
         id="path104"
         inkscape:connector-curvature="0" /><path
         d="m 2060.5,1260.23 c -2.99,64.94 -6.72,142.57 -5.97,211.24 l -2.24,0 c -16.42,-61.21 -37.32,-129.14 -59.72,-192.58 l -73.89,-217.97 -70.17,0 -67.18,214.98 c -19.41,64.2 -37.32,132.87 -50.76,195.57 l -1.49,0 c -2.24,-65.69 -5.22,-145.56 -8.96,-214.23 l -11.19,-202.28 -85.84,0 33.59,503.1 120.92,0 65.69,-202.29 c 17.91,-58.97 33.59,-118.69 46.28,-174.66 l 2.24,0 c 13.43,54.48 30.6,116.44 50.01,175.41 l 69.42,201.54 119.42,0 29.12,-503.1 -89.57,0 -9.71,205.27"
         style="fill:#231f20;fill-opacity:1;fill-rule:nonzero;stroke:none"
         id="path106"
         inkscape:connector-curvature="0" /><path
         d="m 2544.94,1163.94 c 0,-43.3 1.49,-79.13 2.98,-108.98 l -79.87,0 -4.48,54.49 -2.24,0 c -15.67,-25.38 -51.5,-62.71 -117.18,-62.71 -65.69,0 -126.15,39.56 -126.15,158.26 l 0,213.47 91.81,0 0,-197.8 c 0,-60.47 19.4,-99.28 67.92,-99.28 37.32,0 61.21,25.38 70.17,49.27 3.73,7.46 5.23,17.91 5.23,28.36 l 0,219.45 91.81,0 0,-254.53"
         style="fill:#231f20;fill-opacity:1;fill-rule:nonzero;stroke:none"
         id="path108"
         inkscape:connector-curvature="0" /><path
         d="m 2623.3,1140.05 c 20.16,-12.69 59.72,-26.87 92.56,-26.87 40.31,0 58.22,17.17 58.22,41.05 0,24.63 -14.92,36.58 -59.71,53 -70.91,23.89 -100.02,62.7 -100.02,106 0,64.19 52.99,113.45 137.34,113.45 40.31,0 75.39,-9.7 97.04,-21.64 l -18.67,-64.2 c -14.92,8.96 -44.78,20.9 -76.88,20.9 -32.84,0 -50.76,-16.42 -50.76,-38.82 0,-23.13 17.17,-33.58 63.45,-50.75 66.43,-23.14 96.29,-56.73 97.04,-110.48 0,-66.42 -51.5,-114.19 -147.8,-114.19 -44.04,0 -83.6,10.44 -110.47,25.37 l 18.66,67.18"
         style="fill:#231f20;fill-opacity:1;fill-rule:nonzero;stroke:none"
         id="path110"
         inkscape:connector-curvature="0" /><path
         d="m 2986.06,1210.96 c 2.25,-65.68 53.75,-94.05 111.97,-94.05 42.55,0 72.4,6.72 100.77,16.43 l 13.44,-62.71 c -31.35,-13.44 -74.65,-23.13 -126.9,-23.13 -117.94,0 -187.36,72.4 -187.36,183.62 0,100.77 61.21,195.56 177.66,195.56 117.93,0 156.75,-97.04 156.75,-176.9 0,-17.17 -1.49,-30.61 -2.99,-38.82 l -243.34,0 z m 159.75,64.19 c 0.74,33.6 -14.19,88.83 -75.39,88.83 -56.74,0 -80.62,-51.5 -84.36,-88.83 l 159.75,0"
         style="fill:#231f20;fill-opacity:1;fill-rule:nonzero;stroke:none"
         id="path112"
         inkscape:connector-curvature="0" /><path
         d="m 3614.56,1163.94 c 0,-43.3 1.49,-79.13 2.99,-108.98 l -79.87,0 -4.48,54.49 -2.24,0 c -15.68,-25.38 -51.51,-62.71 -117.19,-62.71 -65.69,0 -126.15,39.56 -126.15,158.26 l 0,213.47 91.81,0 0,-197.8 c 0,-60.47 19.41,-99.28 67.93,-99.28 37.32,0 61.2,25.38 70.16,49.27 3.74,7.46 5.23,17.91 5.23,28.36 l 0,219.45 91.81,0 0,-254.53"
         style="fill:#231f20;fill-opacity:1;fill-rule:nonzero;stroke:none"
         id="path114"
         inkscape:connector-curvature="0" /><path
         d="m 3683.96,1310.24 c 0,41.8 -1.48,76.88 -2.97,108.23 l 78.37,0 4.48,-53.74 2.23,0 c 17.17,28.37 50.02,61.95 111.98,61.95 47.77,0 85.09,-26.87 100.76,-67.18 l 1.49,0 c 12.7,20.16 27.62,35.08 44.05,45.54 20.89,14.18 44.04,21.64 74.64,21.64 59.71,0 120.92,-41.05 120.92,-157.5 l 0,-214.22 -89.57,0 0,200.79 c 0,60.46 -20.9,96.29 -64.94,96.29 -31.35,0 -54.49,-22.4 -64.19,-48.52 -2.99,-8.21 -4.48,-20.16 -4.48,-30.6 l 0,-217.96 -89.57,0 0,210.49 c 0,50.76 -20.16,86.59 -62.71,86.59 -34.33,0 -57.47,-26.87 -66.43,-51.51 -2.98,-9.7 -4.48,-20.14 -4.48,-30.6 l 0,-214.97 -89.58,0 0,255.28"
         style="fill:#231f20;fill-opacity:1;fill-rule:nonzero;stroke:none"
         id="path116"
         inkscape:connector-curvature="0" /><path
         d="m 4416.82,1094.25 c 0,-14.77 0.67,-29.22 2.68,-39.29 l -37.28,0 -3.02,18.13 -1.02,0 c -9.73,-12.76 -26.86,-21.83 -48.36,-21.83 -32.92,0 -51.39,23.85 -51.39,48.71 0,40.97 36.61,62.13 97.07,61.8 l 0,2.69 c 0,10.75 -4.37,28.55 -33.25,28.55 -16.13,0 -32.92,-5.04 -44.01,-12.1 l -8.05,26.88 c 12.09,7.39 33.25,14.44 59.11,14.44 52.4,0 67.52,-33.25 67.52,-69.19 l 0,-58.79 z m -40.32,40.65 c -29.21,0.34 -57.1,-5.72 -57.1,-30.57 0,-16.12 10.42,-23.51 23.52,-23.51 16.8,0 28.55,10.75 32.58,22.51 1,3.02 1,6.04 1,9.07 l 0,22.5"
         style="fill:#231f20;fill-opacity:1;fill-rule:nonzero;stroke:none"
         id="path118"
         inkscape:connector-curvature="0" /><path
         d="m 4460.48,1169.83 c 0,18.81 -0.67,34.6 -1.34,48.71 l 35.94,0 2.02,-24.52 1.01,0 c 7.38,12.76 25.18,28.21 52.39,28.21 28.55,0 58.11,-18.48 58.11,-70.2 l 0,-97.07 -41.31,0 0,92.37 c 0,23.51 -8.74,41.31 -31.25,41.31 -16.45,0 -27.87,-11.75 -32.24,-24.18 -1.34,-3.36 -2.01,-8.4 -2.01,-13.1 l 0,-96.4 -41.32,0 0,114.87"
         style="fill:#231f20;fill-opacity:1;fill-rule:nonzero;stroke:none"
         id="path120"
         inkscape:connector-curvature="0" /><path
         d="m 4803.43,1293.77 0,-192.8 c 0,-16.8 0.67,-34.93 1.35,-46.01 l -36.62,0 -2.02,25.86 -0.67,0 c -9.74,-18.14 -29.55,-29.56 -53.07,-29.56 -39.29,0 -70.2,33.26 -70.2,83.64 -0.33,54.75 33.92,87.33 73.23,87.33 22.5,0 38.62,-9.07 46.02,-21.16 l 0.67,0 0,92.7 41.31,0 z m -41.31,-143.42 c 0,3.36 -0.34,7.72 -1.02,11.08 -3.69,15.79 -16.78,28.89 -35.6,28.89 -26.54,0 -41.31,-23.51 -41.31,-53.74 0,-30.23 14.77,-52.06 40.98,-52.06 16.79,0 31.57,11.41 35.6,29.22 1.01,3.7 1.35,7.72 1.35,12.09 l 0,24.52"
         style="fill:#231f20;fill-opacity:1;fill-rule:nonzero;stroke:none"
         id="path122"
         inkscape:connector-curvature="0" /><path
         d="m 4878.59,1558.06 91.82,0 0,-426.22 206.76,0 0,-76.88 -298.58,0 0,503.1"
         style="fill:#231f20;fill-opacity:1;fill-rule:nonzero;stroke:none"
         id="path124"
         inkscape:connector-curvature="0" /><path
         d="m 5273.46,1470.72 c -30.61,0 -50.75,22.4 -50.75,49.27 0,28.36 20.89,50.01 51.5,50.01 31.35,0 50.75,-21.65 51.5,-50.01 0,-26.87 -20.15,-49.27 -51.5,-49.27 l -0.75,0 z m -45.53,-415.76 0,363.51 91.81,0 0,-363.51 -91.81,0"
         style="fill:#231f20;fill-opacity:1;fill-rule:nonzero;stroke:none"
         id="path126"
         inkscape:connector-curvature="0" /><path
         d="m 5389.16,1585.67 91.81,0 0,-217.21 1.49,0 c 22.39,35.08 61.95,58.22 116.45,58.22 88.82,0 152.27,-73.89 151.52,-184.37 0,-130.63 -82.85,-195.57 -164.96,-195.57 -47.02,0 -88.83,17.92 -114.95,62.71 l -1.5,0 -4.47,-54.49 -78.38,0 c 1.5,24.62 2.99,64.94 2.99,101.51 l 0,429.2 z M 5480.97,1205 c 0,-7.48 0.75,-14.94 2.23,-21.66 9.71,-37.32 41.81,-64.19 81.37,-64.19 57.47,0 92.56,45.53 92.56,119.43 0,64.2 -30.61,116.44 -91.82,116.44 -37.31,0 -71.65,-26.87 -81.35,-67.17 -1.5,-6.72 -2.99,-14.93 -2.99,-23.89 l 0,-58.96"
         style="fill:#231f20;fill-opacity:1;fill-rule:nonzero;stroke:none"
         id="path128"
         inkscape:connector-curvature="0" /><path
         d="m 5810.89,1301.28 c 0,49.27 -0.75,85.1 -2.99,117.19 l 79.12,0 3.74,-68.67 2.24,0 c 17.91,50.76 60.46,76.88 100.02,76.88 8.95,0 14.19,-0.74 21.65,-2.24 l 0,-85.84 c -8.21,1.5 -16.43,2.24 -27.62,2.24 -43.3,0 -73.9,-27.61 -82.11,-69.42 -1.49,-8.2 -2.24,-17.91 -2.24,-27.62 l 0,-188.84 -91.81,0 0,246.32"
         style="fill:#231f20;fill-opacity:1;fill-rule:nonzero;stroke:none"
         id="path130"
         inkscape:connector-curvature="0" /><path
         d="m 6343.84,1142.29 c 0,-32.84 1.49,-64.94 5.96,-87.33 l -82.85,0 -6.72,40.31 -2.23,0 c -21.65,-28.37 -59.72,-48.53 -107.49,-48.53 -73.16,0 -114.2,53 -114.2,108.24 0,91.07 81.36,138.09 215.71,137.35 l 0,5.97 c 0,23.88 -9.7,63.44 -73.9,63.44 -35.82,0 -73.14,-11.19 -97.78,-26.87 l -17.91,59.71 c 26.87,16.43 73.9,32.1 131.37,32.1 116.44,0 150.04,-73.89 150.04,-153.76 l 0,-130.63 z m -89.57,90.32 c -64.94,0.74 -126.9,-12.69 -126.9,-67.93 0,-35.83 23.14,-52.24 52.25,-52.24 37.32,0 63.45,23.87 72.4,50.01 2.25,6.71 2.25,13.43 2.25,20.14 l 0,50.02"
         style="fill:#231f20;fill-opacity:1;fill-rule:nonzero;stroke:none"
         id="path132"
         inkscape:connector-curvature="0" /><path
         d="m 6411.02,1301.28 c 0,49.27 -0.76,85.1 -2.99,117.19 l 79.12,0 3.73,-68.67 2.24,0 c 17.92,50.76 60.46,76.88 100.02,76.88 8.96,0 14.18,-0.74 21.66,-2.24 l 0,-85.84 c -8.22,1.5 -16.43,2.24 -27.62,2.24 -43.3,0 -73.91,-27.61 -82.11,-69.42 -1.5,-8.2 -2.25,-17.91 -2.25,-27.62 l 0,-188.84 -91.8,0 0,246.32"
         style="fill:#231f20;fill-opacity:1;fill-rule:nonzero;stroke:none"
         id="path134"
         inkscape:connector-curvature="0" /><path
         d="m 6736.45,1418.47 64.94,-194.82 c 7.46,-22.4 15.67,-50.01 20.89,-70.16 l 2.24,0 c 5.23,20.15 11.94,47.76 19.41,70.91 l 56.73,194.07 97.79,0 -91.07,-247.81 c -50.02,-135.86 -83.6,-196.32 -126.15,-233.64 -36.58,-31.348 -73.9,-43.29 -96.29,-46.282 l -20.9,76.883 c 15.68,3.731 34.34,11.949 52.99,25.379 17.17,11.19 38.08,32.84 50.76,57.47 2.99,6.72 5.23,11.95 5.23,16.43 0,3.73 -0.74,8.95 -4.48,17.91 l -133.62,333.66 101.53,0"
         style="fill:#231f20;fill-opacity:1;fill-rule:nonzero;stroke:none"
         id="path136"
         inkscape:connector-curvature="0" /><path
         d="m 2248.97,1536.82 c -12.12,0.48 -15.52,0.48 -28.14,-0.48 l -2.91,2.91 c 0.49,23.28 0.49,43.67 0.49,60.16 0,10.2 0,130.03 -3.4,196.98 l 3.4,3.4 c 11.16,-0.48 15.04,-0.48 28.14,0.49 l 2.91,-3.4 0,-10.67 c -0.49,-21.83 -0.49,-43.18 -0.49,-65.01 0,-70.84 1.46,-126.16 2.91,-181.47 l -2.91,-2.91"
         style="fill:#231f20;fill-opacity:1;fill-rule:nonzero;stroke:none"
         id="path138"
         inkscape:connector-curvature="0" /><path
         d="m 2526.49,1536.82 c -4.36,0 -9.21,0.48 -14.07,0.48 -3.39,0 -19.89,-0.96 -22.8,-0.96 l -3.88,1.94 c -12.61,19.89 -24.26,39.78 -36.39,59.68 l -99.95,170.79 0.97,-50.46 c 0.97,-119.85 1.46,-133.44 2.92,-178.07 l -2.92,-3.4 c -10.18,0 -14.07,0 -24.26,-0.48 l -2.91,2.91 c 0,7.27 0,167.39 -0.97,204.27 0,8.24 -1.45,49.96 -1.45,52.87 l 2.91,3.4 c 10.19,0 26.68,0.49 36.87,0.49 l 3.88,-2.43 c 11.65,-17.95 14.56,-22.8 38.82,-64.04 15.52,-26.68 31.05,-52.88 47.06,-79.08 l 50.46,-86.86 0,49.98 c -0.49,42.7 -0.97,125.18 -3.4,178.54 l 2.91,3.4 c 11.65,0 12.62,0 23.29,0.49 l 3.4,-2.91 c -0.49,-22.8 -0.49,-42.7 -0.49,-59.19 0,-67.44 0.49,-134.88 3.4,-198.45 l -3.4,-2.91"
         style="fill:#231f20;fill-opacity:1;fill-rule:nonzero;stroke:none"
         id="path140"
         inkscape:connector-curvature="0" /><path
         d="m 2589.57,1583.88 c 13.58,-20.86 41.24,-28.62 61.13,-28.62 34.94,0 61.14,19.89 61.14,49.97 0,20.87 -12.62,32.03 -30.57,41.25 -7.28,3.88 -43.18,19.89 -50.95,24.26 -20.37,9.7 -49.97,25.71 -49.97,64.52 0,35.42 27.17,69.39 85.39,69.39 23.78,0 47.06,-6.31 67.93,-18.44 l 1.45,-3.4 c -1.94,-11.15 -1.94,-12.13 -3.39,-22.8 l -4.37,-1.94 c -11.16,9.7 -29.11,22.32 -59.19,22.32 -54.34,0 -57.25,-36.39 -57.25,-44.64 0,-21.35 17.95,-32.02 41.24,-42.7 l 27.17,-12.12 c 25.23,-10.68 63.56,-27.66 63.56,-74.23 0,-41.25 -33.48,-75.22 -89.77,-75.22 -36.86,0 -58.21,13.1 -70.34,20.38 l -1.46,4.37 c 0.49,3.88 1.46,7.76 2.43,11.64 0.48,4.85 1.45,9.71 1.94,14.56 l 3.88,1.45"
         style="fill:#231f20;fill-opacity:1;fill-rule:nonzero;stroke:none"
         id="path142"
         inkscape:connector-curvature="0" /><path
         d="m 2875.34,1537.3 c -10.67,-0.48 -12.13,-0.48 -27.65,-0.96 l -2.91,2.91 c 0.48,26.68 0.48,51.91 0.48,78.6 0,33.48 0,130.03 -0.48,157.2 -16.99,0 -60.65,-0.97 -79.09,-1.46 l -2.91,3.4 c 0.48,7.76 0.97,10.68 1.45,21.35 l 3.89,2.43 c 5.82,0 34.44,-0.98 41.24,-0.98 l 87.33,0 c 31.05,0 46.58,0.49 56.28,0.98 l 3.4,-2.92 c -0.97,-8.24 -1.46,-13.1 -1.95,-21.83 l -3.39,-2.43 c -12.62,0.49 -25.23,0.98 -41.24,1.46 -5.34,0 -31.54,0.49 -34.45,0.49 -0.49,-11.16 -0.49,-22.81 -0.49,-33.97 0,-24.26 0.49,-49 0.98,-73.74 0.48,-24.75 0.48,-49.98 0.97,-74.73 0,-7.76 1.45,-44.63 1.45,-52.88 l -2.91,-2.92"
         style="fill:#231f20;fill-opacity:1;fill-rule:nonzero;stroke:none"
         id="path144"
         inkscape:connector-curvature="0" /><path
         d="m 3026.23,1536.82 c -12.13,0.48 -15.52,0.48 -28.14,-0.48 l -2.91,2.91 c 0.48,23.28 0.48,43.67 0.48,60.16 0,10.2 0,130.03 -3.39,196.98 l 3.39,3.4 c 11.17,-0.48 15.05,-0.48 28.14,0.49 l 2.92,-3.4 0,-10.67 c -0.49,-21.83 -0.49,-43.18 -0.49,-65.01 0,-70.84 1.46,-126.16 2.91,-181.47 l -2.91,-2.91"
         style="fill:#231f20;fill-opacity:1;fill-rule:nonzero;stroke:none"
         id="path146"
         inkscape:connector-curvature="0" /><path
         d="m 3178.09,1537.3 c -10.67,-0.48 -12.13,-0.48 -27.66,-0.96 l -2.91,2.91 c 0.49,26.68 0.49,51.91 0.49,78.6 0,33.48 0,130.03 -0.49,157.2 -16.98,0 -60.64,-0.97 -79.08,-1.46 l -2.91,3.4 c 0.49,7.76 0.97,10.68 1.45,21.35 l 3.88,2.43 c 5.83,0 34.45,-0.98 41.24,-0.98 l 87.34,0 c 31.05,0 46.58,0.49 56.28,0.98 l 3.4,-2.92 c -0.98,-8.24 -1.46,-13.1 -1.94,-21.83 l -3.4,-2.43 c -12.61,0.49 -25.23,0.98 -41.24,1.46 -5.34,0 -31.54,0.49 -34.45,0.49 -0.48,-11.16 -0.48,-22.81 -0.48,-33.97 0,-24.26 0.48,-49 0.96,-73.74 0.49,-24.75 0.49,-49.98 0.98,-74.73 0,-7.76 1.45,-44.63 1.45,-52.88 l -2.91,-2.92"
         style="fill:#231f20;fill-opacity:1;fill-rule:nonzero;stroke:none"
         id="path148"
         inkscape:connector-curvature="0" /><path
         d="m 3491.51,1797.37 0,-5.82 c -0.47,-46.1 -0.47,-51.43 -0.47,-95.1 l 0,-48.52 c -0.49,-27.17 -0.98,-48.52 -9.71,-67.44 -15.04,-33.48 -50.46,-49.01 -89.27,-49.01 -24.26,0 -46.1,6.31 -61.14,17.47 -33.47,24.26 -32.99,64.05 -32.99,93.65 l 0,21.83 c 0,29.11 0,105.28 -0.48,131.96 l 2.91,3.4 c 14.07,0 14.55,0 28.62,0.49 l 2.91,-2.91 c -1.45,-46.58 -2.42,-92.67 -2.42,-139.25 0,-44.64 0.97,-69.38 18.44,-85.88 9.7,-8.73 26.2,-15.04 48.03,-15.04 24.74,0 47.06,8.73 58.22,30.56 8.25,16.51 8.73,37.37 8.73,76.67 0,44.15 -0.48,88.3 -1.94,132.45 l 2.91,2.91 c 11.65,0 13.59,0 24.74,0.49 l 2.91,-2.91"
         style="fill:#231f20;fill-opacity:1;fill-rule:nonzero;stroke:none"
         id="path150"
         inkscape:connector-curvature="0" /><path
         d="m 3642.89,1537.3 c -10.67,-0.48 -12.13,-0.48 -27.66,-0.96 l -2.91,2.91 c 0.49,26.68 0.49,51.91 0.49,78.6 0,33.48 0,130.03 -0.49,157.2 -16.98,0 -60.64,-0.97 -79.08,-1.46 l -2.91,3.4 c 0.49,7.76 0.97,10.68 1.46,21.35 l 3.87,2.43 c 5.83,0 34.46,-0.98 41.24,-0.98 l 87.34,0 c 31.05,0 46.58,0.49 56.29,0.98 l 3.39,-2.92 c -0.97,-8.24 -1.46,-13.1 -1.94,-21.83 l -3.4,-2.43 c -12.61,0.49 -25.23,0.98 -41.24,1.46 -5.34,0 -31.54,0.49 -34.45,0.49 -0.48,-11.16 -0.48,-22.81 -0.48,-33.97 0,-24.26 0.48,-49 0.97,-73.74 0.49,-24.75 0.49,-49.98 0.97,-74.73 0,-7.76 1.45,-44.63 1.45,-52.88 l -2.91,-2.92"
         style="fill:#231f20;fill-opacity:1;fill-rule:nonzero;stroke:none"
         id="path152"
         inkscape:connector-curvature="0" /><path
         d="m 3910.71,1536.82 -113.04,0 c -12.62,-0.48 -19.41,-0.97 -32.99,-1.45 l -2.91,3.39 0,10.19 c 0.48,15.53 0.48,31.54 0.48,47.07 0,65.5 -0.97,135.85 -3.4,201.35 l 3.4,2.91 c 10.19,-0.49 18.92,-0.49 28.62,-0.49 l 65.51,0 c 21.82,0 38.33,0.49 53.37,0.98 l 3.39,-2.92 c -0.97,-9.7 -0.97,-12.13 -1.46,-21.35 l -3.39,-2.91 c -19.41,0.98 -27.18,0.98 -98.98,1.46 l -17.95,0.49 c 0,-28.63 0,-61.62 0.49,-89.76 l 32.98,0 c 12.13,0 24.75,0 36.88,0.48 25.23,0 27.17,0 43.18,0.49 l 2.42,-2.91 c -0.96,-9.71 -0.96,-10.68 -0.96,-20.38 l -3.4,-2.42 c -17.46,0.96 -29.11,0.96 -79.08,0.48 l -31.54,0 c 0,-17.47 0.97,-92.68 1.46,-99.95 l 29.11,0 c 34.44,0 39.79,0 89.76,1.45 l 2.42,-3.4 c -0.97,-9.21 -0.97,-10.18 -0.97,-20.37 l -3.4,-2.43"
         style="fill:#231f20;fill-opacity:1;fill-rule:nonzero;stroke:none"
         id="path154"
         inkscape:connector-curvature="0" /><path
         d="m 4117.21,1532.79 c -42.99,0 -65.83,23.85 -65.83,65.84 0,39.3 19.48,114.2 95.06,114.2 46.68,0 65.15,-29.89 65.15,-65.83 0,-11.76 -2.01,-23.52 -5.37,-35.27 -4.36,-16.12 -21.84,-78.94 -89.01,-78.94 z m 72.56,115.89 c 0,35.94 -24.19,47.36 -44.01,47.36 -63.15,0 -72.89,-80.61 -72.89,-98.08 0,-28.22 15.45,-48.04 45.34,-48.04 11.43,0 23.19,1.68 35.28,11.42 22.16,17.81 29.56,47.7 32.24,59.12 2.36,9.41 4.04,18.81 4.04,28.22"
         style="fill:#231f20;fill-opacity:1;fill-rule:nonzero;stroke:none"
         id="path156"
         inkscape:connector-curvature="0" /><path
         d="m 4293.55,1692.01 c -16.79,-72.89 -20.48,-90.02 -31.91,-152.84 l -2.68,-2.35 -18.81,-0.67 -2.01,2.01 15.78,70.55 18.14,83.3 -25.19,-0.67 -2.03,2.02 3.7,14.44 2.69,2.01 24.52,-0.67 5.04,24.85 c 4.03,18.14 5.37,25.53 8.4,32.92 5.04,13.77 14.77,31.57 46.35,31.57 7.06,0 12.1,-1 18.14,-2.01 l 2.01,-2.68 -3.36,-14.45 -2.68,-2.02 c -4.71,1.35 -9.75,2.36 -14.79,2.36 -6.71,0 -13.42,-2.02 -17.79,-6.38 -6.72,-6.39 -9.07,-15.46 -15.79,-42.67 l -4.37,-21.49 33.26,0.67 2.01,-2.68 -4.37,-12.43 -2.35,-2.69 -31.91,0"
         style="fill:#231f20;fill-opacity:1;fill-rule:nonzero;stroke:none"
         id="path158"
         inkscape:connector-curvature="0" /><path
         d="m 4881.47,717.359 c 13.59,-20.859 41.25,-28.621 61.14,-28.621 34.93,0 61.13,19.891 61.13,49.973 0,20.867 -12.62,32.019 -30.57,41.238 -7.27,3.879 -43.18,19.891 -50.94,24.25 -20.38,9.711 -49.97,25.731 -49.97,64.539 0,35.422 27.16,69.383 85.39,69.383 23.77,0 47.06,-6.312 67.92,-18.441 l 1.46,-3.399 c -1.94,-11.16 -1.94,-12.121 -3.4,-22.801 l -4.36,-1.941 c -11.16,9.699 -29.11,22.32 -59.2,22.32 -54.34,0 -57.25,-36.39 -57.25,-44.64 0,-21.34 17.95,-32.02 41.24,-42.688 l 27.17,-12.133 c 25.23,-10.668 63.56,-27.66 63.56,-74.238 0,-41.238 -33.48,-75.199 -89.76,-75.199 -36.88,0 -58.22,13.098 -70.35,20.379 l -1.46,4.359 c 0.49,3.891 1.46,7.77 2.43,11.653 0.48,4.859 1.46,9.699 1.94,14.546 l 3.88,1.461"
         style="fill:#231f20;fill-opacity:1;fill-rule:nonzero;stroke:none"
         id="path160"
         inkscape:connector-curvature="0" /><path
         d="m 5257.49,670.301 -113.05,0 c -12.61,-0.492 -19.41,-0.973 -32.99,-1.461 l -2.91,3.398 0,10.192 c 0.48,15.519 0.48,31.531 0.48,47.058 0,65.5 -0.96,135.852 -3.4,201.352 l 3.4,2.91 c 10.19,-0.48 18.93,-0.48 28.63,-0.48 l 65.49,0 c 21.84,0 38.33,0.48 53.37,0.96 l 3.4,-2.91 c -0.96,-9.691 -0.96,-12.129 -1.45,-21.34 l -3.4,-2.91 c -19.41,0.961 -27.17,0.961 -98.98,1.45 l -17.94,0.492 c 0,-28.621 0,-61.621 0.48,-89.762 l 32.99,0 c 12.13,0 24.75,0 36.88,0.48 25.22,0 27.16,0 43.18,0.489 l 2.42,-2.91 c -0.97,-9.707 -0.97,-10.668 -0.97,-20.379 l -3.39,-2.418 c -17.47,0.957 -29.11,0.957 -79.09,0.476 l -31.54,0 c 0,-17.468 0.98,-92.668 1.46,-99.949 l 29.11,0 c 34.45,0 39.78,0 89.76,1.461 l 2.43,-3.398 c -0.97,-9.223 -0.97,-10.18 -0.97,-20.383 l -3.4,-2.418"
         style="fill:#231f20;fill-opacity:1;fill-rule:nonzero;stroke:none"
         id="path162"
         inkscape:connector-curvature="0" /><path
         d="m 5336.57,932.301 c 1.46,0 73.75,0.969 75.69,0.969 20.38,0 40.27,-0.969 57.25,-8.258 23.29,-10.672 38.33,-33.473 38.33,-61.133 0,-39.777 -31.54,-67.918 -74.72,-73.258 l 25.23,-31.043 c 30.57,-37.367 35.91,-43.68 70.35,-85.406 l -1.94,-3.871 -20.86,0 c -4.37,0 -9.22,-0.492 -13.59,-0.492 l -3.87,1.941 c -7.29,9.711 -15.05,19.41 -22.33,29.109 -10.18,13.102 -20.86,25.719 -31.05,38.332 -7.28,9.219 -33.96,42.7 -38.32,48.039 -12.62,-0.492 -16.02,-0.492 -29.6,-0.492 0,-37.84 0.97,-75.687 2.42,-113.527 l -2.91,-2.91 c -12.13,0 -15.04,0 -27.66,-0.492 l -2.91,2.91 c 0.49,19.89 0.49,40.269 0.49,60.172 0,65.488 -0.49,130.988 -3.4,196.5 l 3.4,2.91 z m 100.92,-116.449 c 12.62,3.398 38.81,13.589 38.81,47.07 0,16.008 -6.3,27.156 -14.06,33.957 -12.62,11.152 -32.02,12.133 -57.75,12.133 -10.67,0 -25.22,-0.492 -37.84,-0.981 l 0,-97.031 c 36.88,0 54.83,0 70.84,4.852"
         style="fill:#231f20;fill-opacity:1;fill-rule:nonzero;stroke:none"
         id="path164"
         inkscape:connector-curvature="0" /><path
         d="m 5680.57,670.301 c -16.99,0 -20.87,0 -35.42,-0.492 l -3.4,2.91 c -7.77,21.84 -18.93,57.742 -26.2,80.062 l -32.02,98.489 c -4.37,13.101 -8.73,26.199 -13.1,39.3 -3.4,10.668 -9.22,27.66 -12.62,38.328 l 1.95,3.403 c 16.97,0.969 18.91,0.969 30.07,1.929 l 3.4,-2.421 c 9.22,-35.418 17.46,-60.637 28.14,-95.579 l 43.67,-138.281 52.39,165.449 c 7.77,24.743 9.22,29.114 20.38,67.922 l 3.4,2.43 c 12.13,-0.48 15.04,-0.48 26.68,0 l 2.43,-3.391 c -6.31,-17.949 -8.74,-24.75 -30.56,-87.828 l -29.6,-88.301 c -11.17,-33.468 -12.62,-38.332 -26.68,-81.019 l -2.91,-2.91"
         style="fill:#231f20;fill-opacity:1;fill-rule:nonzero;stroke:none"
         id="path166"
         inkscape:connector-curvature="0" /><path
         d="m 5860.08,670.301 c -12.13,0.488 -15.53,0.488 -28.14,-0.492 l -2.92,2.91 c 0.49,23.293 0.49,43.672 0.49,60.172 0,10.179 0,130.031 -3.4,196.98 l 3.4,3.399 c 11.16,-0.489 15.04,-0.489 28.15,0.48 l 2.91,-3.391 0,-10.679 c -0.49,-21.828 -0.49,-43.18 -0.49,-65.02 0,-70.832 1.45,-126.14 2.91,-181.449 l -2.91,-2.91"
         style="fill:#231f20;fill-opacity:1;fill-rule:nonzero;stroke:none"
         id="path168"
         inkscape:connector-curvature="0" /><path
         d="m 6143.91,715.898 c -1.46,-13.089 -1.46,-15.519 -1.95,-26.679 l -1.93,-3.879 c -15.04,-11.168 -36.39,-20.379 -72.78,-20.379 -21.35,0 -56.77,2.918 -87.34,31.539 -28.62,26.199 -41.24,64.531 -41.24,103.828 0,74.711 46.1,138.281 131.49,138.281 36.39,0 56.76,-11.16 68.41,-17.468 l 2.43,-3.403 c -1.95,-8.726 -2.43,-10.668 -3.88,-22.316 l -3.89,-2.434 c -12.61,8.25 -31.53,20.383 -63.07,20.383 -68.89,0 -99.47,-57.25 -99.47,-111.59 0,-56.281 32.51,-111.101 100.92,-111.101 35.91,0 52.4,13.582 68.42,27.172 l 3.88,-1.954"
         style="fill:#231f20;fill-opacity:1;fill-rule:nonzero;stroke:none"
         id="path170"
         inkscape:connector-curvature="0" /><path
         d="m 6369.02,670.301 -113.04,0 c -12.61,-0.492 -19.41,-0.973 -32.99,-1.461 l -2.91,3.398 0,10.192 c 0.49,15.519 0.49,31.531 0.49,47.058 0,65.5 -0.98,135.852 -3.4,201.352 l 3.4,2.91 c 10.18,-0.48 18.91,-0.48 28.62,-0.48 l 65.5,0 c 21.83,0 38.33,0.48 53.37,0.96 l 3.4,-2.91 c -0.98,-9.691 -0.98,-12.129 -1.46,-21.34 l -3.4,-2.91 c -19.4,0.961 -27.17,0.961 -98.97,1.45 l -17.96,0.492 c 0,-28.621 0,-61.621 0.49,-89.762 l 32.99,0 c 12.13,0 24.74,0 36.87,0.48 25.23,0 27.18,0 43.18,0.489 l 2.44,-2.91 c -0.98,-9.707 -0.98,-10.668 -0.98,-20.379 l -3.4,-2.418 c -17.46,0.957 -29.11,0.957 -79.08,0.476 l -31.54,0 c 0,-17.468 0.97,-92.668 1.46,-99.949 l 29.11,0 c 34.44,0 39.79,0 89.76,1.461 l 2.43,-3.398 c -0.98,-9.223 -0.98,-10.18 -0.98,-20.383 l -3.4,-2.418"
         style="fill:#231f20;fill-opacity:1;fill-rule:nonzero;stroke:none"
         id="path172"
         inkscape:connector-curvature="0" /><path
         d="m 6435.98,717.359 c 13.59,-20.859 41.24,-28.621 61.13,-28.621 34.94,0 61.13,19.891 61.13,49.973 0,20.867 -12.6,32.019 -30.56,41.238 -7.28,3.879 -43.18,19.891 -50.94,24.25 -20.38,9.711 -49.98,25.731 -49.98,64.539 0,35.422 27.18,69.383 85.4,69.383 23.77,0 47.06,-6.312 67.92,-18.441 l 1.45,-3.399 c -1.94,-11.16 -1.94,-12.121 -3.39,-22.801 l -4.37,-1.941 c -11.15,9.699 -29.11,22.32 -59.19,22.32 -54.34,0 -57.26,-36.39 -57.26,-44.64 0,-21.34 17.96,-32.02 41.24,-42.688 l 27.18,-12.133 c 25.23,-10.668 63.56,-27.66 63.56,-74.238 0,-41.238 -33.48,-75.199 -89.76,-75.199 -36.87,0 -58.22,13.098 -70.35,20.379 l -1.46,4.359 c 0.48,3.891 1.46,7.77 2.43,11.653 0.48,4.859 1.45,9.699 1.94,14.546 l 3.88,1.461"
         style="fill:#231f20;fill-opacity:1;fill-rule:nonzero;stroke:none"
         id="path174"
         inkscape:connector-curvature="0" /></g></g></svg>