<?xml version="1.0" encoding="UTF-8" standalone="no"?>
<svg
   xmlns:dc="http://purl.org/dc/elements/1.1/"
   xmlns:cc="http://creativecommons.org/ns#"
   xmlns:rdf="http://www.w3.org/1999/02/22-rdf-syntax-ns#"
   xmlns:svg="http://www.w3.org/2000/svg"
   xmlns="http://www.w3.org/2000/svg"
   xmlns:sodipodi="http://sodipodi.sourceforge.net/DTD/sodipodi-0.dtd"
   xmlns:inkscape="http://www.inkscape.org/namespaces/inkscape"
   version="1.1"
   id="Layer_1"
   x="0px"
   y="0px"
   width="99.999px"
   height="100px"
   viewBox="4.99995 -10.0 99.999 135.0"
   enable-background="new 0 0 99.999 100"
   xml:space="preserve"
   inkscape:version="0.48.4 r9939"
   sodipodi:docname="noun_2189_cc.svg"><metadata
     id="metadata3057"><rdf:RDF><cc:Work
         rdf:about=""><dc:format>image/svg+xml</dc:format><dc:type
           rdf:resource="http://purl.org/dc/dcmitype/StillImage" /></cc:Work></rdf:RDF></metadata><defs
     id="defs3055" /><sodipodi:namedview
     pagecolor="#ffffff"
     bordercolor="#666666"
     borderopacity="1"
     objecttolerance="10"
     gridtolerance="10"
     guidetolerance="10"
     inkscape:pageopacity="0"
     inkscape:pageshadow="2"
     inkscape:window-width="1920"
     inkscape:window-height="1056"
     id="namedview3053"
     showgrid="false"
     inkscape:zoom="0.80875338"
     inkscape:cx="729.29538"
     inkscape:cy="-111.54243"
     inkscape:window-x="0"
     inkscape:window-y="24"
     inkscape:window-maximized="1"
     inkscape:current-layer="Layer_1" /><path
     fill="#010101"
     d="M15.673,13.641C-4.403,32.595-5.313,64.235,13.641,84.312c0.333,0.354,0.672,0.702,1.016,1.044  c19.523,19.524,51.178,19.524,70.699,0c19.524-19.521,19.524-51.175,0-70.699C66.231-4.484,35.349-4.935,15.673,13.641z   M25.262,35.16l9.898-9.898l14.847,14.847l14.847-14.847l9.898,9.898L59.905,50.012l14.848,14.842l-9.898,9.898L50.007,59.905  L35.16,74.752l-9.898-9.898l14.847-14.842L25.262,35.16z"
     id="path3047"
     style="fill:#e03838;fill-opacity:1" /></svg>