<svg xmlns:svg="http://www.w3.org/2000/svg" xmlns="http://www.w3.org/2000/svg" width="304.06244" height="72" version="1.1"><style>.s0{-inkscape-font-specification:Futura Medium;fill:#000;font-family:Futura;font-size:144px;font-weight:500;letter-spacing:0px;line-height:125%;text-align:start;text-anchor:start;word-spacing:0px;writing-mode:lr-tb;}.s1{fill:none;stroke-width:1.5;stroke:#000;}</style><g transform="translate(196.76401,-182.33093)"/><g transform="translate(-0.5,-49.22656)"><path d="m10.270526 94.934192 0 26.292368-9.77052897 0 0-64.745489 11.07047197 0c5.423389 0.000066 9.5189 0.377467 12.286545 1.132209 2.795544 0.754867 5.255643 2.180607 7.380315 4.277231 3.718074 3.634299 5.577126 8.219034 5.577174 13.754222-0.000048 5.926652-1.984902 10.62321-5.954575 14.089692-3.969745 3.466535-9.323267 5.199791-16.060573 5.199767l-4.528829 0m0-9.057659 3.648225 0c8.973765 0.00003 13.460656-3.452496 13.460686-10.357602-0.00003-6.681371-4.626703-10.02208-13.880019-10.022133l-3.228892 0 0 20.379735M78.179673 101.85324l-29.269655 0c0.251587 3.3547 1.341858 6.02447 3.270819 8.00932 1.92893 1.9569 4.403009 2.93535 7.422249 2.93535 2.348255 0 4.291177-0.55911 5.828771-1.67735 1.509578-1.11822 3.228855-3.18694 5.157834-6.20617l7.967385 4.44496c-1.230095 2.09669-2.530035 3.89983-3.899826 5.40944-1.369869 1.48165-2.837544 2.71171-4.403028 3.69015-1.565555 0.9505-3.256875 1.64939-5.073967 2.09668-1.81715 0.44729-3.788028 0.67094-5.912638 0.67094-6.094371 0-10.986616-1.9569-14.676762-5.87071-3.690163-3.94175-5.535242-9.16946-5.535236-15.683161-0.000006-6.457749 1.789162-11.685468 5.367502-15.683172 3.606275-3.94172 8.386703-5.912595 14.341293-5.912637 6.010454 0.000042 10.762924 1.915006 14.257426 5.744903 3.46647 3.802016 5.199724 9.071668 5.199767 15.808974l-0.04193 2.222483m-9.686663-7.715787c-1.313951-5.032003-4.486924-7.548019-9.518928-7.548049-1.146212 0.00003-2.222504 0.181743-3.228892 0.545135-1.006425 0.335499-1.928961 0.838702-2.767615 1.50961-0.810732 0.643015-1.509628 1.425775-2.096684 2.348282-0.587085 0.922566-1.034371 1.970905-1.341875 3.145022l18.953994 0M86.25273 80.383229l9.435061 0 0 3.648225c1.733239-1.817084 3.270803-3.061115 4.612699-3.732095 1.36981-0.698849 2.99124-1.048297 4.8643-1.048339 2.48803 0.000042 5.08791 0.810756 7.79965 2.432153l-4.31916 8.638319c-1.7892-1.285934-3.53643-1.928913-5.24171-1.928943-5.143869 0.00003-7.715794 3.885875-7.715779 11.657541l0 21.17647-9.435061 0 0-40.843331M127.8928 80.383229l0 40.843331-9.43506 0 0-40.843331 9.43506 0M117.032 63.40012c-0.00001-1.649331 0.60104-3.075071 1.80314-4.27723 1.20209-1.202034 2.64181-1.803081 4.31916-1.803147 1.70529 0.000066 3.15899 0.601113 4.3611 1.803147 1.20208 1.1742 1.80313 2.613919 1.80314 4.319163-0.00001 1.705356-0.60106 3.159049-1.80314 4.361095-1.17416 1.202147-2.61388 1.803194-4.31916 1.803146-1.70531 0.000048-3.15901-0.600999-4.3611-1.803146-1.2021-1.202046-1.80315-2.669718-1.80314-4.403028M135.9353 99.33722c-0.00001-5.898634 2.11065-10.916687 6.33197-15.054166 4.2213-4.137407 9.36515-6.206132 15.43157-6.206174 6.09432 0.000042 11.26612 2.08274 15.51543 6.248106 4.19332 4.165438 6.28999 9.281335 6.29004 15.347703-0.00005 6.122321-2.1107 11.252191-6.33197 15.389631-4.24931 4.10949-9.46305 6.16424-15.64123 6.16424-6.12233 0-11.2522-2.09668-15.38964-6.29004-4.13745-4.13744-6.20618-9.3372-6.20617-15.5993m9.64473 0.167734c-0.00002 4.081556 1.09026 7.310436 3.27082 9.686666 2.23644 2.4042 5.18577 3.60629 8.84799 3.60629 3.69013 0 6.63946-1.18811 8.84799-3.56436 2.20847-2.37623 3.31272-5.5492 3.31276-9.518929-0.00004-3.969691-1.10429-7.142666-3.31276-9.51893-2.23649-2.404158-5.18582-3.606257-8.84799-3.606287-3.60631 0.00003-6.52768 1.202129-8.76412 3.606287-2.23648 2.404223-3.35471 5.507307-3.35469 9.309263M218.67458 49.22656l9.477 0 0 72.00101-9.477 0.003 0-5.45508c-3.71815 3.63425-7.92548 5.45137-12.62201 5.45137-5.59117 0-10.23182-2.04077-13.92196-6.1223-3.66221-4.1654-5.49331-9.36516-5.49331-15.599306 0-6.094326 1.8311-11.182265 5.49331-15.263832 3.63423-4.109455 8.20499-6.1642 13.71229-6.164242 4.7804 0.000042 9.05762 1.956944 12.83168 5.870705l0-34.721025m-22.39254 50.278394c-0.00002 3.913826 1.04832 7.100766 3.14501 9.560866 2.15258 2.48807 4.86428 3.73209 8.13513 3.73209 3.49443 0 6.31796-1.20209 8.47058-3.60629 2.15256-2.48805 3.22885-5.64705 3.22889-9.476999-0.00004-3.829909-1.07633-6.988904-3.22889-9.476992-2.15262-2.432122-4.94819-3.648195-8.38672-3.648225-3.24288 0.00003-5.95459 1.230082-8.13512 3.690157-2.1526 2.488088-3.2289 5.563213-3.22888 9.225393" class="s0"/><g transform="matrix(0.59638906,0,0,-0.59638906,117.8479,205.77104)"><path d="m199.59067 197.58875c-0.00001-15.28118 5.60155-28.40617 16.80469-39.375 11.15621-10.96865 24.56245-16.45302 40.21875-16.45313 15.46867 0.00011 28.73428 5.53136 39.79687 16.59375 11.10926 11.06258 16.66394 24.35163 16.66406 39.86719-0.00012 15.60941-5.57824 28.85159-16.73437 39.72656-11.20322 10.92188-24.72664 16.38281-40.57031 16.38281-14.01568 0-26.6016-4.85156-37.75782-14.55468-12.28126-10.73436-18.42188-24.79684-18.42187-42.1875m16.52344 0.21093c-0.00003 12.00005 4.03122 21.86722 12.09375 29.60157 8.01558 7.73439 17.27338 11.60157 27.77343 11.60156 11.39055 0.00001 20.99992-3.93749 28.82813-11.8125 7.82802-7.96872 11.74208-17.67183 11.74219-29.10938-0.00011-11.57806-3.86729-21.28117-11.60157-29.10937-7.68758-7.87491-17.2032-11.81241-28.54687-11.8125-11.29693 0.00009-20.83598 3.93759-28.61719 11.8125-7.78128 7.78132-11.6719 17.39069-11.67187 28.82812" class="s0"/><path d="m215.953 198.0833 4.63279 0" class="s1"/><path d="m256.04651 236.71218-4.68471-12.82968 4.68471-21.8882 4.68472 21.8882z" style="fill:none;stroke-miterlimit:10;stroke-width:1.5;stroke:#000"/><path transform="translate(3.4315046,2.6103535)" d="m253.45706 195.66048a0.84205002 0.84205002 0 1 1-1.6841 0 0.84205002 0.84205002 0 1 1 1.6841 0z" style="fill:#000;stroke-miterlimit:10;stroke-width:2;stroke:#000"/><path d="m261.64464 221.724-2.20273-10.30875 21.20353-33.88601z" style="fill:#000;stroke-miterlimit:20;stroke-width:1.5;stroke:#000"/><path d="m217.09568 187.95472 4.47493 1.19906M220.6462 177.97407l4.01211 2.3164M291.96434 198.0833l4.63279 0M295.34045 187.52645l-4.47493 1.19906M291.5758 177.65287l-4.01211 2.3164M281.936 172.52597l3.27587-3.27588M230.71427 172.52597l-3.27587-3.27588M235.8481 162.45789l2.31639 4.01212M276.6019 162.35082l-2.31639 4.01212M256.05747 161.75518l0-4.63279M265.52233 162.63986l1.19906-4.47493M246.69968 162.96106l-1.19906-4.47493" class="s1"/></g></g></svg>