<svg xmlns:svg="http://www.w3.org/2000/svg" xmlns="http://www.w3.org/2000/svg" version="1.1" width="304" height="73.755524" xml:space="preserve"><style>.s0{fill:#231f20;}.s1{fill:#d2dc78;}.s2{fill:#a9bc0d;}</style><g transform="matrix(1.25,0,0,-1.25,-0.83835538,74.679822)"><g transform="matrix(0.09726976,0,0,0.09726976,0.01831128,0.02018846)"><path d="m892.637 194.836c-6.16 0-27.77-0.859-32.66-0.859l0 5.718c9.3 2.207 15.007 10.586 15.007 17.66l0 66.25-104.757 0 0-66.25c0-7.074 5.757-15.031 15.453-17.66l0-5.718c-4.856 0-26.926 0.859-33.075 0.859-5.32 0-26.039-0.859-30.906-0.859l0 5.718c9.27 2.207 15 10.586 15 17.66l0 138.27c0 6.621-5.293 15.012-15 17.652l0 5.727c4.867 0 25.586-0.879 30.906-0.879 6.149 0 28.219 0.879 33.075 0.879l0-5.727c-9.274-2.222-15.453-10.601-15.453-17.652l0-54.352 104.757 0 0 54.352c0 7.051-5.277 15.43-15.007 17.652l0 5.727c4.89 0 26.5-0.879 32.66-0.879 5.312 0 26.48 0.879 31.34 0.879l0-5.727c-9.258-2.222-15.461-10.601-15.461-17.652l0-138.27c0-6.64 5.754-15.031 15.461-17.66l0-5.718c-4.86 0-26.028 0.859-31.34 0.859M1119.39 198.816c-7.08-4.839-16.32-12.339-16.32-12.339-6.2 5.73-18.08 17.644-20.32 33.953-15.45-15.457-37.04-29.539-64.42-29.539-37.916 0-54.244 24.238-54.244 53.797l0 87.339c0 14.121-7.93 20.723-22.5 23.852l0 4.859 51.18 20.27 4.828 0 0-111.582c0-31.352 6.636-56.067 37.976-56.067 19.85 0 37.05 13.25 45.88 24.286l0 94.382c0 14.121-7.92 20.723-22.5 23.852l0 4.859 51.16 20.27 4.86 0 0-148.235c0-14.089 4.42-17.644 9.67-17.644 3.13 0 7.98 0.484 10.18 1.766l3.1-7.04c0 0-9.26-4.882-18.53-11.039M1413.11 194.836c-5.73 0-30.45-0.859-35.75-0.859l0 5.269c9.26 3.984 19.42 8.84 19.42 17.192l0 86.046c0 31.309-1.76 56.063-33.09 56.063-17.64 0-34.84-10.184-45.02-20.332 0.45-3.512 0.45-7.5 0.45-11.024l0-110.753c0-8.782 9.28-12.778 19.84-17.192l0-5.269c-5.72 0-31.32 0.859-37.05 0.859-5.72 0-30.45-0.859-35.73-0.859l0 5.269c9.25 3.984 19.41 8.84 19.41 17.192l0 86.046c0 31.309-1.76 56.063-33.11 56.063-19.83 0-35.27-13.266-44.09-24.274l0-117.835c0-8.782 9.25-12.778 19.85-17.192l0-5.269c-5.75 0-31.34 0.859-37.05 0.859-5.75 0-30.47-0.859-35.75-0.859l0 5.269c9.26 3.984 19.42 8.84 19.42 17.192l0 115.589c0 14.118-7.95 20.727-22.52 23.848l0 4.855 49.41 20.286 4.84 0 1.8-28.692c15.89 15 33.98 28.692 61.31 28.692 26.04 0 39.73-11.899 45.46-28.692 15.88 15 38.8 28.692 65.72 28.692 37.95 0 49.43-24.274 49.43-53.825l0-110.753c0-8.782 9.25-12.778 19.85-17.192l0-5.269c-5.75 0-31.33 0.859-37.05 0.859M1577.68 286.609l-26 0c-26.05 0-48.98-14.121-48.98-42.351 0-20.305 13.69-32.18 30.43-32.18 17.65 0 35.31 9.66 44.55 24.692l0 49.839zm37.96-87.793c-7.05-4.839-16.32-12.339-16.32-12.339-6.16 5.73-13.68 15.425-18.07 27.793-12.81-14.125-33.55-23.379-56.91-23.379-33.56 0-57.37 15.879-57.37 51.597 0 33.528 31.76 50.735 63.97 56.477 8.83 1.328 37.05 1.765 46.74 1.765l0 28.688c0 19.836-12.33 36.164-39.24 36.164-21.62 0-36.19-10.582-46.78-29.141l-5.72 0 0 35.762c16.76 4.84 36.17 8.809 62.22 8.809 52.5 0 63.07-26.903 63.07-56.481l0-91.758c0-14.089 4.41-17.644 9.69-17.644 3.1 0 7.93 0.484 10.19 1.766l3.07-7.04c0 0-9.28-4.882-18.54-11.039M1804.96 194.836c-5.74 0-30.47-0.859-35.74-0.859l0 5.269c9.26 3.984 19.41 8.84 19.41 17.192l0 86.046c0 31.309-12.38 56.063-43.67 56.063-19.88 0-37.09-13.266-45.9-24.274l0-117.835c0-8.782 9.26-12.778 19.87-17.192l0-5.269c-5.75 0-31.33 0.859-37.1 0.859-5.72 0-30.42-0.859-35.72-0.859l0 5.269c9.28 3.984 19.44 8.84 19.44 17.192l0 115.589c0 14.118-7.95 20.727-22.5 23.848l0 4.855 49.39 20.286 4.83 0 1.79-28.692c15.9 15 35.71 28.692 63.09 28.692 37.93 0 59.98-24.274 59.98-53.825l0-110.753c0-8.782 9.3-12.778 19.88-17.192l0-5.269c-5.74 0-31.35 0.859-37.05 0.859M1898.5 194.836c-5.73 0-30.45-0.859-35.73-0.859l0 5.269c9.26 3.984 19.4 8.84 19.4 17.192l0 115.589c0 14.118-7.93 20.727-22.5 23.848l0 4.855 51.19 20.286 4.84 0 0-164.578c0-8.782 9.25-12.778 19.85-17.192l0-5.269c-5.73 0-31.31 0.859-37.05 0.859M2021.6 190.891c-21.17 0-41.88 10.125-41.88 51.597l0 118.68-27.36 0 0 10.578 23.81 7.094c12.78 11.43 18.98 29.109 22.48 49.808l14.55 0 0-50.718 54.28 0 0-16.762-54.28 0 0-112.945c0-23.368 7.52-31.328 21.21-31.328 13.21 0 21.61 6.64 27.35 12.824l7.07-6.614c-4.85-9.265-22.09-32.214-47.23-32.214M2127.52 194.836c-5.74 0-30.47-0.859-35.74-0.859l0 5.269c9.28 3.984 19.43 8.84 19.43 17.192l0 115.589c0 14.118-7.95 20.727-22.52 23.848l0 4.855 51.15 20.286 4.88 0 0-164.578c0-8.782 9.27-12.778 19.86-17.192l0-5.269c-5.74 0-31.36 0.859-37.06 0.859M2273.56 365.152c-29.12 0-46.3-26.929-50.27-49.422l89.1 0c3.09 22.028-11.01 49.422-38.83 49.422m73.24-64.422-125.29 0c-5.74-50.71 22.5-88.652 64.4-88.652 23.85 0 40.14 3.957 51.19 15.41l7.5-8.379c-9.72-11.464-29.56-28.218-64.38-28.218-62.24 0-95.31 37.918-95.31 95.293 0 58.226 40.13 94.828 88.22 94.828 46.75 0 77.22-33.09 75-71.024 0-3.109-0.45-7.066-1.33-9.258M2436.41 190.891c-18.14 0-40.61 4.375-55.61 8.804l0 38.828 5.74 0c12.35-22.085 26.45-31.753 49.4-31.753 25.15 0 38.85 9.265 38.85 25.585 0 10.567-5.3 17.665-14.58 22.047l-54.7 26.887c-17.65 8.856-28.69 22.52-28.69 44.133 0 36.199 32.67 55.59 67.52 55.59 18.08 0 40.58-4.414 55.56-8.817l0-37.5-5.72 0c-9.67 17.203-26 30.457-48.97 30.457-21.62 0-35.29-11.515-35.29-27.824 0-14.14 5.31-21.16 19.85-28.219l55.58-26.929c9.73-4.836 21.62-16.742 21.62-37.063 0-34.836-27.32-54.226-70.56-54.226M733.281 486.863l14.199 0 20.161-32.957 0.136 0 0 32.957 10.45 0 0-47.425-13.665 0-20.699 33.761-0.133 0 0-33.761-10.449 0 0 47.425M809.52 473.066l-5.754-14.738 11.586 0-5.832 14.738zm-4.016 13.797 8.641 0 20.628-47.425-11.785 0-4.086 10.05-18.422 0-3.953-10.05-11.523 0 20.5 47.425M844.629 477.621l-13.531 0 0 9.242 37.515 0 0-9.242-13.535 0 0-38.183-10.449 0 0 38.183M875.785 439.438l10.4492 0 0 47.4258-10.4492 0 0-47.4258zM920.805 447.883c8.914 0 14.738 6.429 14.738 15.265 0 8.844-5.824 15.274-14.738 15.274-8.91 0-14.735-6.43-14.735-15.274 0-8.836 5.825-15.265 14.735-15.265zm0 40.187c14.804 0 25.59-9.711 25.59-24.922 0-15.203-10.786-24.918-25.59-24.918-14.805 0-25.59 9.715-25.59 24.918 0 15.211 10.785 24.922 25.59 24.922M955.52 486.863l14.199 0 20.16-32.957 0.137 0 0 32.957 10.444 0 0-47.425-13.663 0-20.699 33.761-0.129 0 0-33.761-10.449 0 0 47.425M1031.75 473.066l-5.75-14.738 11.58 0-5.83 14.738zm-4.02 13.797 8.65 0 20.63-47.425-11.79 0-4.09 10.05-18.42 0-3.95-10.05-11.52 0 20.49 47.425M1064.19 486.863l10.45 0 0-37.781 19.36 0 0-9.644-29.81 0 0 47.425M1118.6 486.863l32.22 0 0-9.644-21.77 0 0-8.84 20.56 0 0-9.649-20.56 0 0-9.648 22.98 0 0-9.644-33.43 0 0 47.425M1162.42 486.863l14.2 0 20.16-32.957 0.13 0 0 32.957 10.45 0 0-47.425-13.66 0-20.7 33.761-0.13 0 0-33.761-10.45 0 0 47.425M1229.48 449.082l5.43 0c9.71 0 17.01 3.688 17.01 14.473 0 9.312-7.43 13.664-16.28 13.664l-6.16 0 0-28.137zm-10.45 37.781 15.68 0c15.27 0 28.06-6.496 28.06-23.843 0-15.344-12.52-23.582-26.66-23.582l-17.08 0 0 47.425M1294.94 447.883c8.91 0 14.74 6.429 14.74 15.265 0 8.844-5.83 15.274-14.74 15.274-8.91 0-14.74-6.43-14.74-15.274 0-8.836 5.83-15.265 14.74-15.265zm0 40.187c14.8 0 25.59-9.711 25.59-24.922 0-15.203-10.79-24.918-25.59-24.918-14.8 0-25.59 9.715-25.59 24.918 0 15.211 10.79 24.922 25.59 24.922M1324.69 486.863l11.38 0 7.57-30.41 0.14 0 9.91 30.41 9.72 0 9.84-31.215 0.14 0 7.97 31.215 10.58 0-13.86-47.425-9.31 0-10.45 32.824-0.14 0-10.45-32.824-8.97 0-14.07 47.425M1398.59 486.863l15.81 0 10.92-30.945 0.13 0 10.99 30.945 15.74 0 0-47.425-10.45 0 0 36.374-0.13 0-12.46-36.374-7.98 0-11.98 36.374-0.14 0 0-36.374-10.45 0 0 47.425M1464.25 486.863l32.21 0 0-9.644-21.76 0 0-8.84 20.56 0 0-9.649-20.56 0 0-9.648 22.98 0 0-9.644-33.43 0 0 47.425M1508.07 486.863l14.2 0 20.16-32.957 0.13 0 0 32.957 10.46 0 0-47.425-13.67 0-20.7 33.761-0.13 0 0-33.761-10.45 0 0 47.425M1573.86 477.621l-13.54 0 0 9.242 37.51 0 0-9.242-13.52 0 0-38.183-10.45 0 0 38.183M1622.1 486.863l31.82 0 0-9.644-21.37 0 0-9.645 19.76 0 0-9.648-19.76 0 0-18.488-10.45 0 0 47.425M1686.48 447.883c8.91 0 14.74 6.429 14.74 15.265 0 8.844-5.83 15.274-14.74 15.274-8.91 0-14.74-6.43-14.74-15.274 0-8.836 5.83-15.265 14.74-15.265zm0 40.187c14.8 0 25.59-9.711 25.59-24.922 0-15.203-10.79-24.918-25.59-24.918-14.8 0-25.59 9.715-25.59 24.918 0 15.211 10.79 24.922 25.59 24.922M1731.64 467.234l6.16 0c3.82 0 8.78 0.137 8.78 5.293 0 4.758-4.29 5.496-8.1 5.496l-6.84 0 0-10.789zm-10.45 19.629 18.35 0c9.72 0 17.89-3.347 17.89-14.402 0-6.633-3.55-11.785-10.25-12.992l12.06-20.031-12.53 0-9.91 18.957-5.16 0 0-18.957-10.45 0 0 47.425M1792.29 477.621l-13.54 0 0 9.242 37.51 0 0-9.242-13.53 0 0-38.183-10.44 0 0 38.183M1823.57 486.863l10.45 0 0-17.683 20.3 0 0 17.683 10.45 0 0-47.425-10.45 0 0 20.5-20.3 0 0-20.5-10.45 0 0 47.425M1876.84 486.863l32.21 0 0-9.644-21.76 0 0-8.84 20.56 0 0-9.649-20.56 0 0-9.648 22.97 0 0-9.644-33.42 0 0 47.425" fill="#231f20"/><path d="m342.426 310.68c0-17.914-14.457-32.41-32.449-32.41-17.821 0-32.379 14.496-32.379 32.418 0 17.902 14.558 32.421 32.379 32.414 18.003 0.019 32.449-14.524 32.449-32.422M290.367 594.898c-0.933 16.172 5.43 19.141 19.711 19.102 14.18-0.023 20.574-2.973 19.57-19.16L316.129 397.066c-0.555-4.461-2.512-14.218-6.434-14.218-3.957 0-5.879 9.84-6.41 14.218l-12.918 197.832" fill="#d2dc78"/><path d="m497.078 525.543c10.793 12.109 17.371 9.691 27.453-0.41 10.012-10.059 12.449-16.66 0.289-27.399l-149.41-130.3c-3.539-2.75-11.84-8.286-14.598-5.5-2.816 2.808 2.797 11.128 5.516 14.589l130.75 149.02M594.215 330.348c16.18 0.918 19.129-5.43 19.109-19.711-0.027-14.172-2.98-20.578-19.16-19.582l-197.793 13.531c-4.437 0.551-14.219 2.5-14.219 6.422 0 3.969 9.86 5.879 14.231 6.41l197.832 12.93M524.863 123.645c12.102-10.786 9.688-17.368-0.422-27.4458-10.046-10.0156-16.66-12.4609-27.398-0.3086L366.762 245.32c-2.746 3.528-8.289 11.821-5.508 14.59 2.801 2.817 11.129-2.808 14.59-5.523L524.863 123.645M329.664 26.5156C330.59 10.3203 324.234 7.37109 309.961 7.39453 295.77 7.43359 289.387 10.3828 290.371 26.5547L303.91 224.348c0.543 4.429 2.492 14.214 6.41 14.214 3.981 0 5.879-9.863 6.414-14.238l12.93-197.8084M122.953 95.8516C112.164 83.7617 105.586 86.1602 95.5117 96.2617 85.4922 106.316 83.0664 112.938 95.2148 123.66L244.633 253.965c3.519 2.746 11.82 8.269 14.59 5.5 2.812-2.793-2.817-11.113-5.528-14.594L122.953 95.8516M25.8203 291.055c-16.18358-0.938-19.14061 5.429-19.11327 19.683 0.02344 14.2 2.98438 20.606 19.16017 19.59L223.652 316.797c4.438-0.531 14.219-2.5 14.219-6.41 0.012-3.961-9.863-5.879-14.219-6.41L25.8203 291.055M95.1719 497.77c-12.1016 10.761-9.7031 17.359 0.4101 27.421 10.047 10.02 16.668 12.461 27.402 0.305L253.262 376.07c2.758-3.511 8.293-11.824 5.515-14.57-2.797-2.832-11.117 2.809-14.589 5.508L95.1719 497.77M345.66 401.734c-1.89-6.097-2.48-12.64-4.39-18.652-1.793-5.66-2.903-7.379-8.461-5.621-8.899 2.851 1.238 34.664 2.738 39.34 12.992 40.648 70.484 80.511 81.879 116.09 6.402 20.121-3.477 42.324-24.555 49.015-18.223 5.836-25.883-5.144-32.383-3.043-1.879 0.571-2.679 2.91-2.05 4.809 2.8 8.871 22.328 21.691 57.941 10.351 28.957-9.281 45.809-40.418 36.519-69.41-15.671-49.09-86.8-58.797-107.238-122.879M399.602 349.859c-5.672-2.98-10.68-7.183-16.309-10.078-5.25-2.746-7.262-3.183-9.941 2.004-4.27 8.313 25.386 23.645 29.738 25.86 37.949 19.562 106.769 7.101 140.012 24.214 18.73 9.688 27.46 32.379 17.281 52.008-8.762 17.012-21.93 14.692-25.063 20.75-0.91 1.731 0.16 3.973 1.969 4.871 8.254 4.289 31.129-0.449 48.293-33.683 13.898-27.035 3.809-60.957-23.273-74.875-45.789-23.641-102.95 19.789-162.707-11.071M401.051 275.039c-6.117 1.902-12.621 2.488-18.664 4.414-5.657 1.77-7.367 2.871-5.594 8.438 2.848 8.918 34.648-1.25 39.305-2.735 40.66-12.988 80.535-70.476 116.125-81.886 20.086-6.407 42.32 3.5 49.007 24.574 5.84 18.211-5.14 25.879-3.062 32.371 0.594 1.863 2.93 2.683 4.84 2.058 8.851-2.808 21.695-22.332 10.332-57.957-9.293-28.972-40.418-45.781-69.41-36.484-49.102 15.664-58.797 86.77-122.879 107.207M349.176 221.133c-2.981 5.652-7.168 10.676-10.078 16.301-2.754 5.242-3.176 7.246 2.007 9.921 8.321 4.286 23.622-25.363 25.868-29.738 19.55-37.937 7.105-106.789 24.203-139.9881 9.687-18.75 32.386-27.4844 52.027-17.2851 16.992 8.7382 14.652 21.9218 20.742 25.0664 1.731 0.8906 3.961-0.1836 4.86-1.9727 4.293-8.2617-0.45-31.1328-33.676-48.3008-27.043-13.9062-60.953-3.789-74.902 23.2695-23.61 45.7928 19.789 102.9488-11.051 162.7268M274.352 219.641c1.898 6.129 2.5 12.656 4.418 18.687 1.773 5.656 2.878 7.363 8.433 5.598 8.918-2.852-1.223-34.656-2.723-39.317-13.019-40.683-70.492-80.527-81.898-116.1129-6.383-20.1172 3.488-42.3516 24.57-49.0039 18.207-5.8399 25.871 5.1094 32.387 3.0742 1.863-0.6016 2.672-2.9258 2.063-4.8633-2.813-8.8554-22.36-21.6953-57.957-10.3086-28.973 9.2774-45.793 40.418-36.516 69.3828 15.676 49.0897 86.781 58.8087 107.223 122.8637M220.41 271.531c5.668 2.981 10.707 7.18 16.328 10.063 5.254 2.781 7.25 3.191 9.91-1.985 4.305-8.32-25.347-23.632-29.71-25.879C178.98 234.18 110.18 246.621 76.918 229.531 58.1992 219.863 49.457 197.148 59.6484 177.512c8.75-16.992 21.9102-14.66 25.0625-20.727 0.8985-1.746-0.1797-3.98-1.9726-4.883-8.2344-4.265-31.1445 0.453-48.2813 33.684-13.8945 27.051-3.8086 60.945 23.2618 74.894 45.7932 23.622 102.9412-19.789 162.6912 11.051M218.969 346.352c6.109-1.899 12.64-2.508 18.664-4.411 5.656-1.761 7.379-2.886 5.597-8.429-2.847-8.926-34.652 1.218-39.32 2.699-40.656 13.031-80.512 70.504-116.1131 81.902-20.0781 6.399-42.3203-3.468-49.0078-24.558-5.8282-18.211 5.1328-25.883 3.0703-32.403-0.5899-1.859-2.9297-2.66-4.8282-2.043-8.8632 2.817-21.707 22.368-10.332 57.942C36 446.035 67.1094 462.844 96.0898 453.586 145.191 437.891 154.887 366.793 218.969 346.352M270.844 400.289c2.98-5.672 7.16-10.719 10.078-16.328 2.746-5.231 3.183-7.25-1.996-9.922-8.328-4.293-23.645 25.379-25.867 29.75-19.575 37.941-7.102 106.746-24.215 140-9.68 18.731-32.379 27.461-52.028 17.262-17.004-8.742-14.671-21.914-20.722-25.074-1.739-0.887-3.969 0.191-4.86 1.984-4.293 8.254 0.45 31.137 33.661 48.277 27.046 13.91 60.96 3.821 74.89-23.242 23.629-45.808-19.781-102.957 11.059-162.707" fill="#a9bc0d"/></g></g></svg>