<?xml version="1.0" encoding="UTF-8" standalone="no"?>
<svg
   xmlns:dc="http://purl.org/dc/elements/1.1/"
   xmlns:cc="http://creativecommons.org/ns#"
   xmlns:rdf="http://www.w3.org/1999/02/22-rdf-syntax-ns#"
   xmlns:svg="http://www.w3.org/2000/svg"
   xmlns="http://www.w3.org/2000/svg"
   xmlns:sodipodi="http://sodipodi.sourceforge.net/DTD/sodipodi-0.dtd"
   xmlns:inkscape="http://www.inkscape.org/namespaces/inkscape"
   version="1.1"
   id="Layer_1"
   x="0px"
   y="0px"
   width="59.259258"
   height="74.074074"
   viewBox="4 -10 59.259258 100"
   enable-background="new 0 0 80 100"
   xml:space="preserve"
   inkscape:version="0.48.4 r9939"
   sodipodi:docname="noun_304_cc.svg"><metadata
     id="metadata19"><rdf:RDF><cc:Work
         rdf:about=""><dc:format>image/svg+xml</dc:format><dc:type
           rdf:resource="http://purl.org/dc/dcmitype/StillImage" /></cc:Work></rdf:RDF></metadata><defs
     id="defs17" /><sodipodi:namedview
     pagecolor="#ffffff"
     bordercolor="#666666"
     borderopacity="1"
     objecttolerance="10"
     gridtolerance="10"
     guidetolerance="10"
     inkscape:pageopacity="0"
     inkscape:pageshadow="2"
     inkscape:window-width="1920"
     inkscape:window-height="1056"
     id="namedview15"
     showgrid="false"
     fit-margin-top="0"
     fit-margin-left="-2.7755576e-17"
     fit-margin-right="0"
     fit-margin-bottom="0"
     inkscape:zoom="6.675088"
     inkscape:cx="44.221318"
     inkscape:cy="34.432955"
     inkscape:window-x="0"
     inkscape:window-y="24"
     inkscape:window-maximized="1"
     inkscape:current-layer="Layer_1" /><rect
     x="29.717131"
     y="16"
     width="8"
     height="62"
     id="rect3" /><rect
     x="45.717129"
     y="16"
     width="8"
     height="62"
     id="rect5" /><rect
     x="13.71713"
     y="16"
     width="8"
     height="62"
     id="rect7" /><path
     d="m 61.71713,0 h -7 v -1 c 0,-5.383 -4.019,-9 -10,-9 h -22 c -5.981,0 -10,3.617 -10,9 V 0 H 5.7171295 c -6.61699998,0 -12,5.383 -12,12 h 4 v 66 c 0,6.617 5.383,12 12,12 h 10.0000005 28 10 c 6.617,0 12,-5.383 12,-12 V 12 h 4 c 0,-6.617 -5.383,-12 -12,-12 z m -43,-1 c 0,-1.99 1.346,-3 4,-3 h 22 c 2.654,0 4,1.01 4,3 v 1 h -30 v -1 z m 39,83 h -10 -28 -10.0000005 c -2.206,0 -4,-1.794 -4,-4 V 12 H 61.71713 v 66 c 0,2.206 -1.794,4 -4,4 z"
     id="path9"
     inkscape:connector-curvature="0" /><text
     x="-6.2828708"
     y="107.5"
     font-size="5.0"
     font-weight="bold"
     id="text11"
     style="font-size:5px;font-weight:bold;fill:#000000;font-family:'Helvetica Neue, Helvetica, Arial-Unicode, Arial, Sans-serif'">Created by Edward Boatman</text>
<text
     x="-6.2828708"
     y="112.5"
     font-size="5.0"
     font-weight="bold"
     id="text13"
     style="font-size:5px;font-weight:bold;fill:#000000;font-family:'Helvetica Neue, Helvetica, Arial-Unicode, Arial, Sans-serif'">from the Noun Project</text>
</svg>